<svg xmlns="http://www.w3.org/2000/svg" viewBox="0 0 560 380" role="img" aria-labelledby="title desc">
  <title id="title">Video Components</title>
  <desc id="desc">Freeform starter board: Video Components</desc>
  <rect width="560" height="380" fill="#FFFFFF"/>
  <text x="40" y="36" font-family="system-ui,sans-serif" font-size="20" font-weight="700" fill="#0F172A">Video Components</text>
  <text x="40" y="56" font-family="system-ui,sans-serif" font-size="11" fill="#94A3B8">Apple MDM Academy — Enterprise Icon System</text>
  <rect x="40" y="100" width="64" height="64" rx="8" fill="#F1F5F9" stroke="#E2E8F0" stroke-width="1"/>
    <text x="72" y="178" text-anchor="middle" font-family="system-ui,sans-serif" font-size="7" fill="#475569">Step 1</text><rect x="120" y="100" width="64" height="64" rx="8" fill="#F1F5F9" stroke="#E2E8F0" stroke-width="1"/>
    <text x="152" y="178" text-anchor="middle" font-family="system-ui,sans-serif" font-size="7" fill="#475569">Step 2</text><rect x="200" y="100" width="64" height="64" rx="8" fill="#F1F5F9" stroke="#E2E8F0" stroke-width="1"/>
    <text x="232" y="178" text-anchor="middle" font-family="system-ui,sans-serif" font-size="7" fill="#475569">Step 3</text><rect x="280" y="100" width="64" height="64" rx="8" fill="#F1F5F9" stroke="#E2E8F0" stroke-width="1"/>
    <text x="312" y="178" text-anchor="middle" font-family="system-ui,sans-serif" font-size="7" fill="#475569">Step 4</text><rect x="360" y="100" width="64" height="64" rx="8" fill="#F1F5F9" stroke="#E2E8F0" stroke-width="1"/>
    <text x="392" y="178" text-anchor="middle" font-family="system-ui,sans-serif" font-size="7" fill="#475569">Service</text><rect x="440" y="100" width="64" height="64" rx="8" fill="#F1F5F9" stroke="#E2E8F0" stroke-width="1"/>
    <text x="472" y="178" text-anchor="middle" font-family="system-ui,sans-serif" font-size="7" fill="#475569">Device</text><rect x="40" y="180" width="64" height="64" rx="8" fill="#F1F5F9" stroke="#E2E8F0" stroke-width="1"/>
    <text x="72" y="258" text-anchor="middle" font-family="system-ui,sans-serif" font-size="7" fill="#475569">User</text><rect x="120" y="180" width="64" height="64" rx="8" fill="#F1F5F9" stroke="#E2E8F0" stroke-width="1"/>
    <text x="152" y="258" text-anchor="middle" font-family="system-ui,sans-serif" font-size="7" fill="#475569">Policy</text><rect x="200" y="180" width="64" height="64" rx="8" fill="#F1F5F9" stroke="#E2E8F0" stroke-width="1"/>
    <text x="232" y="258" text-anchor="middle" font-family="system-ui,sans-serif" font-size="7" fill="#475569">Compliance</text><rect x="280" y="180" width="64" height="64" rx="8" fill="#F1F5F9" stroke="#E2E8F0" stroke-width="1"/>
    <text x="312" y="258" text-anchor="middle" font-family="system-ui,sans-serif" font-size="7" fill="#475569">Badge</text><rect x="360" y="180" width="64" height="64" rx="8" fill="#F1F5F9" stroke="#E2E8F0" stroke-width="1"/>
    <text x="392" y="258" text-anchor="middle" font-family="system-ui,sans-serif" font-size="7" fill="#475569">Connector</text><rect x="440" y="180" width="64" height="64" rx="8" fill="#F1F5F9" stroke="#E2E8F0" stroke-width="1"/>
    <text x="472" y="258" text-anchor="middle" font-family="system-ui,sans-serif" font-size="7" fill="#475569">Compare</text><rect x="40" y="260" width="64" height="64" rx="8" fill="#F1F5F9" stroke="#E2E8F0" stroke-width="1"/>
    <text x="72" y="338" text-anchor="middle" font-family="system-ui,sans-serif" font-size="7" fill="#475569">Summary</text><rect x="120" y="260" width="64" height="64" rx="8" fill="#F1F5F9" stroke="#E2E8F0" stroke-width="1"/>
    <text x="152" y="338" text-anchor="middle" font-family="system-ui,sans-serif" font-size="7" fill="#475569">Alert</text><rect x="200" y="260" width="64" height="64" rx="8" fill="#F1F5F9" stroke="#E2E8F0" stroke-width="1"/>
    <text x="232" y="338" text-anchor="middle" font-family="system-ui,sans-serif" font-size="7" fill="#475569">Quiz</text>
</svg>
