<svg xmlns="http://www.w3.org/2000/svg" viewBox="0 0 560 380" role="img" aria-labelledby="title desc">
  <title id="title">Common Library</title>
  <desc id="desc">Freeform starter board: Common Library</desc>
  <rect width="560" height="380" fill="#FFFFFF"/>
  <text x="40" y="36" font-family="system-ui,sans-serif" font-size="20" font-weight="700" fill="#0F172A">Common Library</text>
  <text x="40" y="56" font-family="system-ui,sans-serif" font-size="11" fill="#94A3B8">Apple MDM Academy — Enterprise Icon System</text>
  <rect x="40" y="100" width="64" height="64" rx="8" fill="#F1F5F9" stroke="#E2E8F0" stroke-width="1"/>
    <text x="72" y="178" text-anchor="middle" font-family="system-ui,sans-serif" font-size="7" fill="#475569">User</text><rect x="120" y="100" width="64" height="64" rx="8" fill="#F1F5F9" stroke="#E2E8F0" stroke-width="1"/>
    <text x="152" y="178" text-anchor="middle" font-family="system-ui,sans-serif" font-size="7" fill="#475569">Admin</text><rect x="200" y="100" width="64" height="64" rx="8" fill="#F1F5F9" stroke="#E2E8F0" stroke-width="1"/>
    <text x="232" y="178" text-anchor="middle" font-family="system-ui,sans-serif" font-size="7" fill="#475569">MacBook</text><rect x="280" y="100" width="64" height="64" rx="8" fill="#F1F5F9" stroke="#E2E8F0" stroke-width="1"/>
    <text x="312" y="178" text-anchor="middle" font-family="system-ui,sans-serif" font-size="7" fill="#475569">iPhone</text><rect x="360" y="100" width="64" height="64" rx="8" fill="#F1F5F9" stroke="#E2E8F0" stroke-width="1"/>
    <text x="392" y="178" text-anchor="middle" font-family="system-ui,sans-serif" font-size="7" fill="#475569">iPad</text><rect x="440" y="100" width="64" height="64" rx="8" fill="#F1F5F9" stroke="#E2E8F0" stroke-width="1"/>
    <text x="472" y="178" text-anchor="middle" font-family="system-ui,sans-serif" font-size="7" fill="#475569">Windows</text><rect x="40" y="180" width="64" height="64" rx="8" fill="#F1F5F9" stroke="#E2E8F0" stroke-width="1"/>
    <text x="72" y="258" text-anchor="middle" font-family="system-ui,sans-serif" font-size="7" fill="#475569">Android</text><rect x="120" y="180" width="64" height="64" rx="8" fill="#F1F5F9" stroke="#E2E8F0" stroke-width="1"/>
    <text x="152" y="258" text-anchor="middle" font-family="system-ui,sans-serif" font-size="7" fill="#475569">Cloud</text><rect x="200" y="180" width="64" height="64" rx="8" fill="#F1F5F9" stroke="#E2E8F0" stroke-width="1"/>
    <text x="232" y="258" text-anchor="middle" font-family="system-ui,sans-serif" font-size="7" fill="#475569">MDM</text><rect x="280" y="180" width="64" height="64" rx="8" fill="#F1F5F9" stroke="#E2E8F0" stroke-width="1"/>
    <text x="312" y="258" text-anchor="middle" font-family="system-ui,sans-serif" font-size="7" fill="#475569">Cert</text><rect x="360" y="180" width="64" height="64" rx="8" fill="#F1F5F9" stroke="#E2E8F0" stroke-width="1"/>
    <text x="392" y="258" text-anchor="middle" font-family="system-ui,sans-serif" font-size="7" fill="#475569">Shield OK</text><rect x="440" y="180" width="64" height="64" rx="8" fill="#F1F5F9" stroke="#E2E8F0" stroke-width="1"/>
    <text x="472" y="258" text-anchor="middle" font-family="system-ui,sans-serif" font-size="7" fill="#475569">Shield NOK</text><rect x="40" y="260" width="64" height="64" rx="8" fill="#F1F5F9" stroke="#E2E8F0" stroke-width="1"/>
    <text x="72" y="338" text-anchor="middle" font-family="system-ui,sans-serif" font-size="7" fill="#475569">Sync</text><rect x="120" y="260" width="64" height="64" rx="8" fill="#F1F5F9" stroke="#E2E8F0" stroke-width="1"/>
    <text x="152" y="338" text-anchor="middle" font-family="system-ui,sans-serif" font-size="7" fill="#475569">Secure</text><rect x="200" y="260" width="64" height="64" rx="8" fill="#F1F5F9" stroke="#E2E8F0" stroke-width="1"/>
    <text x="232" y="338" text-anchor="middle" font-family="system-ui,sans-serif" font-size="7" fill="#475569">Warning</text>
</svg>
