<svg xmlns="http://www.w3.org/2000/svg" viewBox="0 0 24 24" fill="currentColor" aria-hidden="true">
  <path d="M12 2C6.48 2 2 6.58 2 12.26c0 4.52 2.87 8.35 6.84 9.7.5.1.68-.22.68-.49 0-.24-.01-.87-.01-1.71-2.78.62-3.37-1.36-3.37-1.36-.45-1.17-1.11-1.48-1.11-1.48-.91-.64.07-.63.07-.63 1 .07 1.53 1.05 1.53 1.05.9 1.56 2.36 1.11 2.94.85.09-.67.35-1.11.63-1.37-2.22-.26-4.56-1.14-4.56-5.08 0-1.12.39-2.03 1.03-2.75-.1-.26-.45-1.3.1-2.7 0 0 .84-.27 2.75 1.05A9.2 9.2 0 0112 6.84c.85.004 1.71.12 2.51.35 1.91-1.32 2.75-1.05 2.75-1.05.55 1.4.2 2.44.1 2.7.64.72 1.03 1.63 1.03 2.75 0 3.95-2.34 4.81-4.57 5.07.36.32.68.94.68 1.9 0 1.37-.01 2.47-.01 2.81 0 .27.18.6.69.49A10.03 10.03 0 0022 12.26C22 6.58 17.52 2 12 2z"/>
</svg>
